<svg width="669" height="652" viewBox="0 0 669 652" fill="none" xmlns="http://www.w3.org/2000/svg">
<rect width="669" height="652" fill="#D4EADF"/>
<path d="M51.7754 93.6849C41.3325 89.7045 35.1794 79.6097 30.0092 71.1245C23.7653 60.8717 19.5297 54.5952 11.767 54.6003L11.715 37.1055C28.3914 37.1016 36.6347 50.5557 43.2252 61.4039C49.4691 71.6567 53.7047 77.9332 61.4674 77.9281C69.2301 77.9229 73.463 71.6324 79.6781 61.3736C86.2437 50.5383 94.4333 37.0493 111.143 37.0274C127.82 37.0235 136.054 50.5052 142.654 61.3258C148.897 71.5786 153.133 77.8552 160.896 77.85C168.684 77.8544 172.891 71.5543 179.107 61.2956C185.672 50.4602 193.862 36.9712 210.572 36.9494C227.282 36.9275 235.492 50.3996 242.082 61.2477C248.326 71.5006 252.562 77.7771 260.324 77.7719C268.112 77.7763 272.32 71.4762 278.535 61.2175C285.101 50.3822 293.29 36.8932 310 36.8713C326.677 36.8674 334.92 50.3215 341.519 61.1421C347.763 71.3949 351.999 77.6714 359.787 77.6758C365.298 77.677 368.603 72.5457 374.295 61.6247C380.091 50.5574 387.292 36.8151 402.624 36.7929C417.956 36.7707 425.205 50.5251 431.004 61.5654C436.762 72.4668 440.06 77.6141 445.58 77.5876C451.091 77.5888 454.371 72.4479 460.089 61.5365C465.875 50.4968 473.06 36.7173 488.392 36.6952C503.725 36.673 510.973 50.4273 516.797 61.4772C522.53 72.369 525.829 77.5163 531.373 77.4995C536.885 77.5006 540.19 72.3693 545.882 61.4483C551.669 50.4086 558.878 36.6387 574.211 36.6165C589.568 36.6039 596.792 50.3487 602.616 61.3986C608.374 72.3 611.672 77.4473 617.192 77.4208C622.703 77.422 626.008 72.2907 631.726 61.3792C637.521 50.312 644.722 36.5697 660.055 36.5475L660.073 54.0603C654.562 54.0592 651.257 59.1905 645.539 70.1019C639.752 81.1416 632.543 94.9115 617.21 94.9336C601.878 94.9558 594.629 81.2015 588.805 70.1516C583.047 59.2502 579.749 54.1029 574.229 54.1293C568.718 54.1282 565.413 59.2595 559.695 70.1709C553.909 81.2106 546.699 94.9805 531.367 95.0027C516.009 95.0153 508.785 81.2706 502.987 70.2302C497.253 59.3384 493.955 54.1911 488.41 54.208C482.899 54.2068 479.619 59.3477 473.901 70.2591C468.115 81.2988 460.931 95.0783 445.598 95.1004C430.266 95.1226 423.017 81.3683 417.193 70.3184C411.435 59.417 408.137 54.2697 402.617 54.2961C397.106 54.295 393.801 59.4263 388.108 70.3473C382.322 81.387 375.112 95.1569 359.805 95.1886C343.128 95.1925 334.885 81.7384 328.286 70.9179C322.042 60.665 317.806 54.3885 310.018 54.3841C302.231 54.3797 298.023 60.6797 291.808 70.9385C285.242 81.7738 277.053 95.2628 260.342 95.2847C243.632 95.3066 235.423 81.8345 228.824 71.0139C222.58 60.761 218.319 54.475 210.556 54.4802C202.768 54.4757 198.561 60.7758 192.346 71.0346C185.78 81.8699 177.59 95.3589 160.88 95.3808C144.179 95.3751 135.969 81.903 129.37 71.0824C123.126 60.8296 118.916 54.5626 111.128 54.5582C103.365 54.5634 99.1322 60.8539 92.9171 71.1127C86.3515 81.948 78.1619 95.437 61.4856 95.4409C57.89 95.4289 54.6623 94.7853 51.7754 93.6849Z" fill="#C3DFD1"/>
<path d="M51.7754 275.185C41.3325 271.205 35.1794 261.11 30.0092 252.625C23.7653 242.372 19.5297 236.096 11.767 236.101L11.715 218.606C28.3914 218.602 36.6347 232.056 43.2252 242.904C49.4691 253.157 53.7047 259.434 61.4674 259.429C69.2301 259.423 73.463 253.133 79.6781 242.874C86.2437 232.039 94.4333 218.55 111.143 218.528C127.82 218.524 136.054 232.006 142.654 242.826C148.897 253.079 153.133 259.356 160.896 259.35C168.684 259.355 172.891 253.055 179.107 242.796C185.672 231.961 193.862 218.472 210.572 218.45C227.282 218.428 235.492 231.9 242.082 242.748C248.326 253.001 252.562 259.278 260.324 259.272C268.112 259.277 272.32 252.977 278.535 242.718C285.101 231.883 293.29 218.394 310 218.372C326.677 218.368 334.92 231.822 341.519 242.643C347.763 252.895 351.999 259.172 359.787 259.176C365.298 259.177 368.603 254.046 374.295 243.125C380.091 232.058 387.292 218.316 402.624 218.293C417.956 218.271 425.205 232.026 431.004 243.066C436.762 253.967 440.06 259.115 445.58 259.088C451.091 259.089 454.371 253.948 460.089 243.037C465.875 231.997 473.06 218.218 488.392 218.196C503.725 218.173 510.973 231.928 516.797 242.978C522.53 253.87 525.829 259.017 531.373 259C536.885 259.001 540.19 253.87 545.882 242.949C551.669 231.909 558.878 218.139 574.211 218.117C589.568 218.104 596.792 231.849 602.616 242.899C608.374 253.8 611.672 258.948 617.192 258.921C622.703 258.922 626.008 253.791 631.726 242.88C637.521 231.812 644.722 218.07 660.055 218.048L660.073 235.561C654.562 235.56 651.257 240.691 645.539 251.602C639.752 262.642 632.543 276.412 617.21 276.434C601.878 276.456 594.629 262.702 588.805 251.652C583.047 240.751 579.749 235.603 574.229 235.63C568.718 235.629 565.413 240.76 559.695 251.671C553.909 262.711 546.699 276.481 531.367 276.503C516.009 276.516 508.785 262.771 502.987 251.731C497.253 240.839 493.955 235.692 488.41 235.708C482.899 235.707 479.619 240.848 473.901 251.76C468.115 262.799 460.931 276.579 445.598 276.601C430.266 276.623 423.017 262.869 417.193 251.819C411.435 240.918 408.137 235.77 402.617 235.797C397.106 235.796 393.801 240.927 388.108 251.848C382.322 262.887 375.112 276.657 359.805 276.689C343.128 276.693 334.885 263.239 328.286 252.418C322.042 242.165 317.806 235.889 310.018 235.885C302.231 235.88 298.023 242.18 291.808 252.439C285.242 263.274 277.053 276.763 260.342 276.785C243.632 276.807 235.423 263.335 228.824 252.514C222.58 242.262 218.319 235.975 210.556 235.981C202.768 235.976 198.561 242.276 192.346 252.535C185.78 263.37 177.59 276.859 160.88 276.881C144.179 276.876 135.969 263.403 129.37 252.583C123.126 242.33 118.916 236.063 111.128 236.059C103.365 236.064 99.1322 242.354 92.9171 252.613C86.3515 263.448 78.1619 276.937 61.4856 276.941C57.89 276.929 54.6623 276.286 51.7754 275.185Z" fill="#C3DFD1"/>
<path d="M51.6873 457.824C41.2444 453.844 35.0913 443.749 29.9211 435.264C23.6772 425.011 19.4416 418.734 11.6789 418.739L11.627 401.245C28.3033 401.241 36.5467 414.695 43.1371 425.543C49.381 435.796 53.6166 442.072 61.3793 442.067C69.1421 442.062 73.3749 435.772 79.59 425.513C86.1556 414.677 94.3453 401.188 111.055 401.167C127.732 401.163 135.966 414.644 142.566 425.465C148.809 435.718 153.045 441.994 160.808 441.989C168.596 441.994 172.803 435.694 179.018 425.435C185.584 414.599 193.774 401.11 210.484 401.089C227.194 401.067 235.404 414.539 241.994 425.387C248.238 435.64 252.474 441.916 260.236 441.911C268.024 441.915 272.232 435.615 278.447 425.357C285.013 414.521 293.202 401.032 309.912 401.01C326.589 401.007 334.832 414.461 341.431 425.281C347.675 435.534 351.911 441.811 359.698 441.815C365.21 441.816 368.515 436.685 374.207 425.764C380.003 414.697 387.203 400.954 402.536 400.932C417.868 400.91 425.117 414.664 430.916 425.705C436.674 436.606 439.972 441.753 445.492 441.727C451.003 441.728 454.283 436.587 460.001 425.676C465.787 414.636 472.972 400.857 488.304 400.834C503.637 400.812 510.885 414.566 516.709 425.616C522.442 436.508 525.74 441.655 531.285 441.639C536.797 441.64 540.102 436.508 545.794 425.587C551.581 414.548 558.79 400.778 574.123 400.756C589.48 400.743 596.704 414.488 602.528 425.538C608.286 436.439 611.584 441.586 617.104 441.56C622.615 441.561 625.92 436.43 631.638 425.518C637.433 414.451 644.634 400.709 659.966 400.687L659.985 418.199C654.473 418.198 651.168 423.33 645.451 434.241C639.664 445.281 632.454 459.051 617.122 459.073C601.79 459.095 594.541 445.341 588.717 434.291C582.959 423.389 579.661 418.242 574.141 418.268C568.63 418.267 565.325 423.399 559.607 434.31C553.82 445.35 546.611 459.12 531.278 459.142C515.921 459.154 508.697 445.41 502.898 434.369C497.165 423.478 493.867 418.33 488.322 418.347C482.811 418.346 479.531 423.487 473.813 434.398C468.027 445.438 460.842 459.217 445.51 459.24C430.178 459.262 422.929 445.507 417.105 434.458C411.347 423.556 408.049 418.409 402.529 418.435C397.018 418.434 393.713 423.565 388.02 434.486C382.233 445.526 375.024 459.296 359.717 459.328C343.04 459.332 334.797 445.878 328.198 435.057C321.954 424.804 317.718 418.528 309.93 418.523C302.143 418.519 297.935 424.819 291.72 435.078C285.154 445.913 276.965 459.402 260.254 459.424C243.544 459.446 235.335 445.974 228.736 435.153C222.492 424.9 218.231 418.614 210.468 418.619C202.68 418.615 198.473 424.915 192.257 435.174C185.692 446.009 177.502 459.498 160.792 459.52C144.091 459.514 135.881 446.042 129.282 435.222C123.038 424.969 118.828 418.702 111.04 418.697C103.277 418.703 99.0442 424.993 92.829 435.252C86.2634 446.087 78.0738 459.576 61.3975 459.58C57.8019 459.568 54.5742 458.924 51.6873 457.824Z" fill="#C3DFD1"/>
<path d="M51.7754 639.269C41.3325 635.289 35.1794 625.194 30.0092 616.708C23.7653 606.456 19.5297 600.179 11.767 600.184L11.715 582.69C28.3914 582.686 36.6347 596.14 43.2252 606.988C49.4691 617.241 53.7047 623.517 61.4674 623.512C69.2301 623.507 73.463 617.216 79.6781 606.958C86.2437 596.122 94.4333 582.633 111.143 582.611C127.82 582.608 136.054 596.089 142.654 606.91C148.897 617.163 153.133 623.439 160.896 623.434C168.684 623.438 172.891 617.138 179.107 606.88C185.672 596.044 193.862 582.555 210.572 582.533C227.282 582.511 235.492 595.984 242.082 606.832C248.326 617.085 252.562 623.361 260.324 623.356C268.112 623.36 272.32 617.06 278.535 606.801C285.101 595.966 293.29 582.477 310 582.455C326.677 582.451 334.92 595.905 341.519 606.726C347.763 616.979 351.999 623.255 359.787 623.26C365.298 623.261 368.603 618.13 374.295 607.209C380.091 596.141 387.292 582.399 402.624 582.377C417.956 582.355 425.205 596.109 431.004 607.149C436.762 618.051 440.06 623.198 445.58 623.172C451.091 623.173 454.371 618.032 460.089 607.12C465.875 596.081 473.06 582.301 488.392 582.279C503.725 582.257 510.973 596.011 516.797 607.061C522.53 617.953 525.829 623.1 531.373 623.083C536.885 623.085 540.19 617.953 545.882 607.032C551.669 595.993 558.878 582.223 574.211 582.201C589.568 582.188 596.792 595.933 602.616 606.983C608.374 617.884 611.672 623.031 617.192 623.005C622.703 623.006 626.008 617.875 631.726 606.963C637.521 595.896 644.722 582.154 660.055 582.131L660.073 599.644C654.562 599.643 651.257 604.774 645.539 615.686C639.752 626.726 632.543 640.495 617.21 640.518C601.878 640.54 594.629 626.785 588.805 615.736C583.047 604.834 579.749 599.687 574.229 599.713C568.718 599.712 565.413 604.844 559.695 615.755C553.909 626.795 546.699 640.565 531.367 640.587C516.009 640.599 508.785 626.855 502.987 615.814C497.253 604.922 493.955 599.775 488.41 599.792C482.899 599.791 479.619 604.932 473.901 615.843C468.115 626.883 460.931 640.662 445.598 640.684C430.266 640.707 423.017 626.952 417.193 615.902C411.435 605.001 408.137 599.854 402.617 599.88C397.106 599.879 393.801 605.01 388.108 615.931C382.322 626.971 375.112 640.741 359.805 640.773C343.128 640.777 334.885 627.322 328.286 616.502C322.042 606.249 317.806 599.972 310.018 599.968C302.231 599.964 298.023 606.264 291.808 616.523C285.242 627.358 277.053 640.847 260.342 640.869C243.632 640.891 235.423 627.418 228.824 616.598C222.58 606.345 218.319 600.059 210.556 600.064C202.768 600.06 198.561 606.36 192.346 616.619C185.78 627.454 177.59 640.943 160.88 640.965C144.179 640.959 135.969 627.487 129.37 616.666C123.126 606.414 118.916 600.147 111.128 600.142C103.365 600.147 99.1322 606.438 92.9171 616.697C86.3515 627.532 78.1619 641.021 61.4856 641.025C57.89 641.013 54.6623 640.369 51.7754 639.269Z" fill="#C3DFD1"/>
<path d="M51.7754 186.795C41.3325 182.814 35.1794 172.72 30.0092 164.234C23.7653 153.982 19.5297 147.705 11.767 147.71L11.715 130.215C28.3914 130.211 36.6347 143.666 43.2252 154.514C49.4691 164.767 53.7047 171.043 61.4674 171.038C69.2301 171.033 73.463 164.742 79.6781 154.483C86.2437 143.648 94.4333 130.159 111.143 130.137C127.82 130.133 136.054 143.615 142.654 154.436C148.897 164.689 153.133 170.965 160.896 170.96C168.684 170.964 172.891 164.664 179.107 154.405C185.672 143.57 193.862 130.081 210.572 130.059C227.282 130.037 235.492 143.509 242.082 154.358C248.326 164.61 252.562 170.887 260.324 170.882C268.112 170.886 272.32 164.586 278.535 154.327C285.101 143.492 293.29 130.003 310 129.981C326.677 129.977 334.92 143.431 341.519 154.252C347.763 164.505 351.999 170.781 359.787 170.786C365.298 170.787 368.603 165.656 374.295 154.735C380.091 143.667 387.292 129.925 402.624 129.903C417.956 129.881 425.205 143.635 431.004 154.675C436.762 165.577 440.06 170.724 445.58 170.698C451.091 170.699 454.371 165.558 460.089 154.646C465.875 143.607 473.06 129.827 488.392 129.805C503.725 129.783 510.973 143.537 516.797 154.587C522.53 165.479 525.829 170.626 531.373 170.609C536.885 170.61 540.19 165.479 545.882 154.558C551.669 143.518 558.878 129.749 574.211 129.726C589.568 129.714 596.792 143.459 602.616 154.508C608.374 165.41 611.672 170.557 617.192 170.531C622.703 170.532 626.008 165.401 631.726 154.489C637.521 143.422 644.722 129.68 660.055 129.657L660.073 147.17C654.562 147.169 651.257 152.3 645.539 163.212C639.752 174.251 632.543 188.021 617.21 188.043C601.878 188.066 594.629 174.311 588.805 163.261C583.047 152.36 579.749 147.213 574.229 147.239C568.718 147.238 565.413 152.369 559.695 163.281C553.909 174.32 546.699 188.09 531.367 188.113C516.009 188.125 508.785 174.38 502.987 163.34C497.253 152.448 493.955 147.301 488.41 147.318C482.899 147.317 479.619 152.458 473.901 163.369C468.115 174.409 460.931 188.188 445.598 188.21C430.266 188.232 423.017 174.478 417.193 163.428C411.435 152.527 408.137 147.38 402.617 147.406C397.106 147.405 393.801 152.536 388.108 163.457C382.322 174.497 375.112 188.267 359.805 188.298C343.128 188.302 334.885 174.848 328.286 164.028C322.042 153.775 317.806 147.498 310.018 147.494C302.231 147.49 298.023 153.79 291.808 164.048C285.242 174.884 277.053 188.373 260.342 188.395C243.632 188.416 235.423 174.944 228.824 164.124C222.58 153.871 218.319 147.585 210.556 147.59C202.768 147.586 198.561 153.886 192.346 164.144C185.78 174.98 177.59 188.469 160.88 188.491C144.179 188.485 135.969 175.013 129.37 164.192C123.126 153.939 118.916 147.673 111.128 147.668C103.365 147.673 99.1322 153.964 92.9171 164.223C86.3515 175.058 78.1619 188.547 61.4856 188.551C57.89 188.539 54.6623 187.895 51.7754 186.795Z" fill="#C3DFD1"/>
<path d="M51.7754 368.295C41.3325 364.315 35.1794 354.22 30.0092 345.735C23.7653 335.482 19.5297 329.206 11.767 329.211L11.715 311.716C28.3914 311.712 36.6347 325.166 43.2252 336.014C49.4691 346.267 53.7047 352.544 61.4674 352.538C69.2301 352.533 73.463 346.243 79.6781 335.984C86.2437 325.149 94.4333 311.66 111.143 311.638C127.82 311.634 136.054 325.116 142.654 335.936C148.897 346.189 153.133 352.466 160.896 352.46C168.684 352.465 172.891 346.165 179.107 335.906C185.672 325.071 193.862 311.582 210.572 311.56C227.282 311.538 235.492 325.01 242.082 335.858C248.326 346.111 252.562 352.387 260.324 352.382C268.112 352.387 272.32 346.087 278.535 335.828C285.101 324.993 293.29 311.504 310 311.482C326.677 311.478 334.92 324.932 341.519 335.752C347.763 346.005 351.999 352.282 359.787 352.286C365.298 352.287 368.603 347.156 374.295 336.235C380.091 325.168 387.292 311.425 402.624 311.403C417.956 311.381 425.205 325.135 431.004 336.176C436.762 347.077 440.06 352.224 445.58 352.198C451.091 352.199 454.371 347.058 460.089 336.147C465.875 325.107 473.06 311.328 488.392 311.306C503.725 311.283 510.973 325.038 516.797 336.088C522.53 346.979 525.829 352.127 531.373 352.11C536.885 352.111 540.19 346.98 545.882 336.059C551.669 325.019 558.878 311.249 574.211 311.227C589.568 311.214 596.792 324.959 602.616 336.009C608.374 346.91 611.672 352.058 617.192 352.031C622.703 352.032 626.008 346.901 631.726 335.99C637.521 324.922 644.722 311.18 660.055 311.158L660.073 328.671C654.562 328.669 651.257 333.801 645.539 344.712C639.752 355.752 632.543 369.522 617.21 369.544C601.878 369.566 594.629 355.812 588.805 344.762C583.047 333.861 579.749 328.713 574.229 328.74C568.718 328.739 565.413 333.87 559.695 344.781C553.909 355.821 546.699 369.591 531.367 369.613C516.009 369.626 508.785 355.881 502.987 344.841C497.253 333.949 493.955 328.801 488.41 328.818C482.899 328.817 479.619 333.958 473.901 344.869C468.115 355.909 460.931 369.689 445.598 369.711C430.266 369.733 423.017 355.979 417.193 344.929C411.435 334.027 408.137 328.88 402.617 328.906C397.106 328.905 393.801 334.037 388.108 344.958C382.322 355.997 375.112 369.767 359.805 369.799C343.128 369.803 334.885 356.349 328.286 345.528C322.042 335.275 317.806 328.999 310.018 328.994C302.231 328.99 298.023 335.29 291.808 345.549C285.242 356.384 277.053 369.873 260.342 369.895C243.632 369.917 235.423 356.445 228.824 345.624C222.58 335.371 218.319 329.085 210.556 329.091C202.768 329.086 198.561 335.386 192.346 345.645C185.78 356.48 177.59 369.969 160.88 369.991C144.179 369.985 135.969 356.513 129.37 345.693C123.126 335.44 118.916 329.173 111.128 329.169C103.365 329.174 99.1322 335.464 92.9171 345.723C86.3515 356.558 78.1619 370.047 61.4856 370.051C57.89 370.039 54.6623 369.396 51.7754 368.295Z" fill="#C3DFD1"/>
<path d="M51.7754 550.934C41.3325 546.954 35.1794 536.859 30.0092 528.374C23.7653 518.121 19.5297 511.844 11.767 511.849L11.715 494.355C28.3914 494.351 36.6347 507.805 43.2252 518.653C49.4691 528.906 53.7047 535.182 61.4674 535.177C69.2301 535.172 73.463 528.881 79.6781 518.623C86.2437 507.787 94.4333 494.298 111.143 494.276C127.82 494.273 136.054 507.754 142.654 518.575C148.897 528.828 153.133 535.104 160.896 535.099C168.684 535.103 172.891 528.803 179.107 518.545C185.672 507.709 193.862 494.22 210.572 494.198C227.282 494.176 235.492 507.649 242.082 518.497C248.326 528.75 252.562 535.026 260.324 535.021C268.112 535.025 272.32 528.725 278.535 518.466C285.101 507.631 293.29 494.142 310 494.12C326.677 494.116 334.92 507.571 341.519 518.391C347.763 528.644 351.999 534.92 359.787 534.925C365.298 534.926 368.603 529.795 374.295 518.874C380.091 507.806 387.292 494.064 402.624 494.042C417.956 494.02 425.205 507.774 431.004 518.814C436.762 529.716 440.06 534.863 445.58 534.837C451.091 534.838 454.371 529.697 460.089 518.785C465.875 507.746 473.06 493.966 488.392 493.944C503.725 493.922 510.973 507.676 516.797 518.726C522.53 529.618 525.829 534.765 531.373 534.748C536.885 534.75 540.19 529.618 545.882 518.697C551.669 507.658 558.878 493.888 574.211 493.866C589.568 493.853 596.792 507.598 602.616 518.648C608.374 529.549 611.672 534.696 617.192 534.67C622.703 534.671 626.008 529.54 631.726 518.628C637.521 507.561 644.722 493.819 660.055 493.797L660.073 511.309C654.562 511.308 651.257 516.44 645.539 527.351C639.752 538.391 632.543 552.161 617.21 552.183C601.878 552.205 594.629 538.451 588.805 527.401C583.047 516.499 579.749 511.352 574.229 511.378C568.718 511.377 565.413 516.509 559.695 527.42C553.909 538.46 546.699 552.23 531.367 552.252C516.009 552.264 508.785 538.52 502.987 527.479C497.253 516.587 493.955 511.44 488.41 511.457C482.899 511.456 479.619 516.597 473.901 527.508C468.115 538.548 460.931 552.327 445.598 552.349C430.266 552.372 423.017 538.617 417.193 527.567C411.435 516.666 408.137 511.519 402.617 511.545C397.106 511.544 393.801 516.675 388.108 527.596C382.322 538.636 375.112 552.406 359.805 552.438C343.128 552.442 334.885 538.987 328.286 528.167C322.042 517.914 317.806 511.637 310.018 511.633C302.231 511.629 298.023 517.929 291.808 528.188C285.242 539.023 277.053 552.512 260.342 552.534C243.632 552.556 235.423 539.083 228.824 528.263C222.58 518.01 218.319 511.724 210.556 511.729C202.768 511.725 198.561 518.025 192.346 528.284C185.78 539.119 177.59 552.608 160.88 552.63C144.179 552.624 135.969 539.152 129.37 528.331C123.126 518.079 118.916 511.812 111.128 511.807C103.365 511.812 99.1322 518.103 92.9171 528.362C86.3515 539.197 78.1619 552.686 61.4856 552.69C57.89 552.678 54.6623 552.034 51.7754 550.934Z" fill="#C3DFD1"/>
<mask id="mask0_1_6213" style="mask-type:alpha" maskUnits="userSpaceOnUse" x="4" y="4" width="661" height="644">
<rect x="4" y="4" width="661" height="644" fill="white"/>
</mask>
<g mask="url(#mask0_1_6213)">
</g>
</svg>
