<svg width="669" height="652" viewBox="0 0 669 652" fill="none" xmlns="http://www.w3.org/2000/svg">
<rect width="669" height="652" fill="#FCCCC7"/>
<mask id="mask0_1_6174" style="mask-type:alpha" maskUnits="userSpaceOnUse" x="4" y="4" width="661" height="644">
<rect x="4" y="4" width="661" height="644" fill="white"/>
</mask>
<g mask="url(#mask0_1_6174)">
<path d="M30.9077 280.15L34.0993 292.519L45.9641 287.251L38.0791 297.406L49.6828 303.205L36.6587 303.5L39.2634 316L30.9077 306.212L22.552 316L25.1566 303.5L12.1326 303.205L23.7362 297.406L15.8512 287.251L27.7161 292.519L30.9077 280.15Z" fill="#FEDAD6"/>
<path d="M64.193 233.475L67.3846 245.844L79.2495 240.576L71.3645 250.731L82.9681 256.53L69.9441 256.825L72.5487 269.325L64.193 259.537L55.8373 269.325L58.4419 256.825L45.4179 256.53L57.0216 250.731L49.1365 240.576L61.0014 245.844L64.193 233.475Z" fill="#FEDAD6"/>
<path d="M25.6771 186.8L28.8687 199.169L40.7336 193.9L32.8486 204.056L44.4522 209.855L31.4282 210.15L34.0328 222.65L25.6771 212.862L17.3214 222.65L19.9261 210.15L6.90202 209.855L18.5057 204.056L10.6207 193.9L22.4855 199.169L25.6771 186.8Z" fill="#FEDAD6"/>
<path d="M59.438 140.125L62.6296 152.493L74.4944 147.225L66.6094 157.381L78.2131 163.18L65.189 163.475L67.7937 175.974L59.438 166.187L51.0822 175.974L53.6869 163.475L40.6629 163.18L52.2665 157.381L44.3815 147.225L56.2464 152.493L59.438 140.125Z" fill="#FEDAD6"/>
<path d="M25.6771 93.921L28.8687 106.29L40.7336 101.022L32.8486 111.177L44.4522 116.976L31.4282 117.271L34.0328 129.771L25.6771 119.983L17.3214 129.771L19.9261 117.271L6.90202 116.976L18.5057 111.177L10.6207 101.022L22.4855 106.29L25.6771 93.921Z" fill="#FEDAD6"/>
<path d="M59.438 47.7173L62.6296 60.086L74.4944 54.8178L66.6094 64.9731L78.2131 70.7724L65.189 71.0672L67.7937 83.567L59.438 73.7793L51.0822 83.567L53.6869 71.0672L40.6629 70.7724L52.2665 64.9731L44.3815 54.8178L56.2464 60.086L59.438 47.7173Z" fill="#FEDAD6"/>
<path d="M23.7751 10L26.9667 22.3686L38.8316 17.1005L30.9466 27.2558L42.5502 33.0551L29.5262 33.3499L32.1308 45.8497L23.7751 36.062L15.4194 45.8497L18.024 33.3499L5 33.0551L16.6037 27.2558L8.71864 17.1005L20.5835 22.3686L23.7751 10Z" fill="#FEDAD6"/>
<path d="M91.2968 280.15L94.4884 292.519L106.353 287.251L98.4682 297.406L110.072 303.205L97.0478 303.5L99.6525 316L91.2968 306.212L82.9411 316L85.5457 303.5L72.5217 303.205L84.1253 297.406L76.2403 287.251L88.1052 292.519L91.2968 280.15Z" fill="#FEDAD6"/>
<path d="M124.582 233.475L127.774 245.844L139.639 240.576L131.754 250.731L143.357 256.53L130.333 256.825L132.938 269.325L124.582 259.537L116.226 269.325L118.831 256.825L105.807 256.53L117.411 250.731L109.526 240.576L121.391 245.844L124.582 233.475Z" fill="#FEDAD6"/>
<path d="M86.0662 186.8L89.2578 199.169L101.123 193.9L93.2377 204.056L104.841 209.855L91.8173 210.15L94.4219 222.65L86.0662 212.862L77.7105 222.65L80.3152 210.15L67.2911 209.855L78.8948 204.056L71.0098 193.9L82.8746 199.169L86.0662 186.8Z" fill="#FEDAD6"/>
<path d="M119.827 140.125L123.019 152.493L134.884 147.225L126.999 157.381L138.602 163.18L125.578 163.475L128.183 175.974L119.827 166.187L111.471 175.974L114.076 163.475L101.052 163.18L112.656 157.381L104.771 147.225L116.635 152.493L119.827 140.125Z" fill="#FEDAD6"/>
<path d="M86.0662 93.921L89.2578 106.29L101.123 101.022L93.2377 111.177L104.841 116.976L91.8173 117.271L94.4219 129.771L86.0662 119.983L77.7105 129.771L80.3152 117.271L67.2911 116.976L78.8948 111.177L71.0098 101.022L82.8746 106.29L86.0662 93.921Z" fill="#FEDAD6"/>
<path d="M119.827 47.7173L123.019 60.086L134.884 54.8178L126.999 64.9731L138.602 70.7724L125.578 71.0672L128.183 83.567L119.827 73.7793L111.471 83.567L114.076 71.0672L101.052 70.7724L112.656 64.9731L104.771 54.8178L116.635 60.086L119.827 47.7173Z" fill="#FEDAD6"/>
<path d="M84.1642 10L87.3558 22.3686L99.2207 17.1005L91.3356 27.2558L102.939 33.0551L89.9153 33.3499L92.5199 45.8497L84.1642 36.062L75.8085 45.8497L78.4131 33.3499L65.3891 33.0551L76.9928 27.2558L69.1077 17.1005L80.9726 22.3686L84.1642 10Z" fill="#FEDAD6"/>
<path d="M151.924 280.15L155.076 292.519L166.794 287.251L159.007 297.406L170.467 303.205L157.604 303.5L160.176 316L151.924 306.212L143.671 316L146.244 303.5L133.38 303.205L144.841 297.406L137.053 287.251L148.771 292.519L151.924 280.15Z" fill="#FEDAD6"/>
<path d="M185.209 233.475L188.361 245.844L200.08 240.576L192.292 250.731L203.752 256.53L190.889 256.825L193.462 269.325L185.209 259.537L176.956 269.325L179.529 256.825L166.666 256.53L178.126 250.731L170.338 240.576L182.057 245.844L185.209 233.475Z" fill="#FEDAD6"/>
<path d="M146.693 186.8L149.845 199.169L161.564 193.9L153.776 204.056L165.236 209.855L152.373 210.15L154.946 222.65L146.693 212.862L138.441 222.65L141.013 210.15L128.15 209.855L139.61 204.056L131.822 193.9L143.541 199.169L146.693 186.8Z" fill="#FEDAD6"/>
<path d="M180.454 140.125L183.606 152.493L195.324 147.225L187.537 157.381L198.997 163.18L186.134 163.475L188.706 175.974L180.454 166.187L172.201 175.974L174.774 163.475L161.911 163.18L173.371 157.381L165.583 147.225L177.302 152.493L180.454 140.125Z" fill="#FEDAD6"/>
<path d="M146.693 93.921L149.845 106.29L161.564 101.022L153.776 111.177L165.236 116.976L152.373 117.271L154.946 129.771L146.693 119.983L138.441 129.771L141.013 117.271L128.15 116.976L139.61 111.177L131.822 101.022L143.541 106.29L146.693 93.921Z" fill="#FEDAD6"/>
<path d="M180.454 47.7173L183.606 60.086L195.324 54.8178L187.537 64.9731L198.997 70.7724L186.134 71.0672L188.706 83.567L180.454 73.7793L172.201 83.567L174.774 71.0672L161.911 70.7724L173.371 64.9731L165.583 54.8178L177.302 60.086L180.454 47.7173Z" fill="#FEDAD6"/>
<path d="M144.791 10L147.943 22.3686L159.662 17.1005L151.874 27.2558L163.334 33.0551L150.471 33.3499L153.044 45.8497L144.791 36.062L136.538 45.8497L139.111 33.3499L126.248 33.0551L137.708 27.2558L129.92 17.1005L141.639 22.3686L144.791 10Z" fill="#FEDAD6"/>
<path d="M212.55 280.15L215.742 292.519L227.607 287.251L219.722 297.406L231.326 303.205L218.302 303.5L220.906 316L212.55 306.212L204.195 316L206.799 303.5L193.775 303.205L205.379 297.406L197.494 287.251L209.359 292.519L212.55 280.15Z" fill="#FEDAD6"/>
<path d="M245.836 233.475L249.027 245.844L260.892 240.576L253.007 250.731L264.611 256.53L251.587 256.825L254.192 269.325L245.836 259.537L237.48 269.325L240.085 256.825L227.061 256.53L238.664 250.731L230.779 240.576L242.644 245.844L245.836 233.475Z" fill="#FEDAD6"/>
<path d="M207.32 186.8L210.512 199.169L222.376 193.9L214.491 204.056L226.095 209.855L213.071 210.15L215.676 222.65L207.32 212.862L198.964 222.65L201.569 210.15L188.545 209.855L200.148 204.056L192.263 193.9L204.128 199.169L207.32 186.8Z" fill="#FEDAD6"/>
<path d="M241.081 140.125L244.272 152.493L256.137 147.225L248.252 157.381L259.856 163.18L246.832 163.475L249.436 175.974L241.081 166.187L232.725 175.974L235.33 163.475L222.306 163.18L233.909 157.381L226.024 147.225L237.889 152.493L241.081 140.125Z" fill="#FEDAD6"/>
<path d="M207.32 93.921L210.512 106.29L222.376 101.022L214.491 111.177L226.095 116.976L213.071 117.271L215.676 129.771L207.32 119.983L198.964 129.771L201.569 117.271L188.545 116.976L200.148 111.177L192.263 101.022L204.128 106.29L207.32 93.921Z" fill="#FEDAD6"/>
<path d="M241.081 47.7173L244.272 60.086L256.137 54.8178L248.252 64.9731L259.856 70.7724L246.832 71.0672L249.436 83.567L241.081 73.7793L232.725 83.567L235.33 71.0672L222.306 70.7724L233.909 64.9731L226.024 54.8178L237.889 60.086L241.081 47.7173Z" fill="#FEDAD6"/>
<path d="M205.418 10L208.609 22.3686L220.474 17.1005L212.589 27.2558L224.193 33.0551L211.169 33.3499L213.774 45.8497L205.418 36.062L197.062 45.8497L199.667 33.3499L186.643 33.0551L198.246 27.2558L190.361 17.1005L202.226 22.3686L205.418 10Z" fill="#FEDAD6"/>
<path d="M272.94 280.15L276.131 292.519L287.996 287.251L280.111 297.406L291.715 303.205L278.691 303.5L281.295 316L272.94 306.212L264.584 316L267.189 303.5L254.164 303.205L265.768 297.406L257.883 287.251L269.748 292.519L272.94 280.15Z" fill="#FEDAD6"/>
<path d="M306.225 233.475L309.416 245.844L321.281 240.576L313.396 250.731L325 256.53L311.976 256.825L314.581 269.325L306.225 259.537L297.869 269.325L300.474 256.825L287.45 256.53L299.053 250.731L291.168 240.576L303.033 245.844L306.225 233.475Z" fill="#FEDAD6"/>
<path d="M267.709 186.8L270.901 199.169L282.765 193.9L274.88 204.056L286.484 209.855L273.46 210.15L276.065 222.65L267.709 212.862L259.353 222.65L261.958 210.15L248.934 209.855L260.538 204.056L252.653 193.9L264.517 199.169L267.709 186.8Z" fill="#FEDAD6"/>
<path d="M301.47 140.125L304.661 152.493L316.526 147.225L308.641 157.381L320.245 163.18L307.221 163.475L309.826 175.974L301.47 166.187L293.114 175.974L295.719 163.475L282.695 163.18L294.298 157.381L286.413 147.225L298.278 152.493L301.47 140.125Z" fill="#FEDAD6"/>
<path d="M267.709 93.921L270.901 106.29L282.765 101.022L274.88 111.177L286.484 116.976L273.46 117.271L276.065 129.771L267.709 119.983L259.353 129.771L261.958 117.271L248.934 116.976L260.538 111.177L252.653 101.022L264.517 106.29L267.709 93.921Z" fill="#FEDAD6"/>
<path d="M301.47 47.7173L304.661 60.086L316.526 54.8178L308.641 64.9731L320.245 70.7724L307.221 71.0672L309.826 83.567L301.47 73.7793L293.114 83.567L295.719 71.0672L282.695 70.7724L294.298 64.9731L286.413 54.8178L298.278 60.086L301.47 47.7173Z" fill="#FEDAD6"/>
<path d="M265.807 10L268.999 22.3686L280.863 17.1005L272.978 27.2558L284.582 33.0551L271.558 33.3499L274.163 45.8497L265.807 36.062L257.451 45.8497L260.056 33.3499L247.032 33.0551L258.636 27.2558L250.751 17.1005L262.615 22.3686L265.807 10Z" fill="#FEDAD6"/>
<path d="M30.9077 605.15L34.0993 617.519L45.9641 612.251L38.0791 622.406L49.6828 628.205L36.6587 628.5L39.2634 641L30.9077 631.212L22.552 641L25.1566 628.5L12.1326 628.205L23.7362 622.406L15.8512 612.251L27.7161 617.519L30.9077 605.15Z" fill="#FEDAD6"/>
<path d="M64.193 558.475L67.3846 570.844L79.2495 565.576L71.3645 575.731L82.9681 581.53L69.9441 581.825L72.5487 594.325L64.193 584.537L55.8373 594.325L58.4419 581.825L45.4179 581.53L57.0216 575.731L49.1365 565.576L61.0014 570.844L64.193 558.475Z" fill="#FEDAD6"/>
<path d="M25.6771 511.8L28.8687 524.169L40.7336 518.9L32.8486 529.056L44.4522 534.855L31.4282 535.15L34.0328 547.65L25.6771 537.862L17.3214 547.65L19.9261 535.15L6.90202 534.855L18.5057 529.056L10.6207 518.9L22.4855 524.169L25.6771 511.8Z" fill="#FEDAD6"/>
<path d="M59.438 465.125L62.6296 477.493L74.4944 472.225L66.6094 482.381L78.2131 488.18L65.189 488.475L67.7937 500.974L59.438 491.187L51.0822 500.974L53.6869 488.475L40.6629 488.18L52.2665 482.381L44.3815 472.225L56.2464 477.493L59.438 465.125Z" fill="#FEDAD6"/>
<path d="M25.6771 418.921L28.8687 431.29L40.7336 426.022L32.8486 436.177L44.4522 441.976L31.4282 442.271L34.0328 454.771L25.6771 444.983L17.3214 454.771L19.9261 442.271L6.90202 441.976L18.5057 436.177L10.6207 426.022L22.4855 431.29L25.6771 418.921Z" fill="#FEDAD6"/>
<path d="M59.438 372.717L62.6296 385.086L74.4944 379.818L66.6094 389.973L78.2131 395.772L65.189 396.067L67.7937 408.567L59.438 398.779L51.0822 408.567L53.6869 396.067L40.6629 395.772L52.2665 389.973L44.3815 379.818L56.2464 385.086L59.438 372.717Z" fill="#FEDAD6"/>
<path d="M23.7751 335L26.9667 347.369L38.8316 342.1L30.9466 352.256L42.5502 358.055L29.5262 358.35L32.1308 370.85L23.7751 361.062L15.4194 370.85L18.024 358.35L5 358.055L16.6037 352.256L8.71864 342.1L20.5835 347.369L23.7751 335Z" fill="#FEDAD6"/>
<path d="M91.2968 605.15L94.4884 617.519L106.353 612.251L98.4682 622.406L110.072 628.205L97.0478 628.5L99.6525 641L91.2968 631.212L82.9411 641L85.5457 628.5L72.5217 628.205L84.1253 622.406L76.2403 612.251L88.1052 617.519L91.2968 605.15Z" fill="#FEDAD6"/>
<path d="M124.582 558.475L127.774 570.844L139.639 565.576L131.754 575.731L143.357 581.53L130.333 581.825L132.938 594.325L124.582 584.537L116.226 594.325L118.831 581.825L105.807 581.53L117.411 575.731L109.526 565.576L121.391 570.844L124.582 558.475Z" fill="#FEDAD6"/>
<path d="M86.0662 511.8L89.2578 524.169L101.123 518.9L93.2377 529.056L104.841 534.855L91.8173 535.15L94.4219 547.65L86.0662 537.862L77.7105 547.65L80.3152 535.15L67.2911 534.855L78.8948 529.056L71.0098 518.9L82.8746 524.169L86.0662 511.8Z" fill="#FEDAD6"/>
<path d="M119.827 465.125L123.019 477.493L134.884 472.225L126.999 482.381L138.602 488.18L125.578 488.475L128.183 500.974L119.827 491.187L111.471 500.974L114.076 488.475L101.052 488.18L112.656 482.381L104.771 472.225L116.635 477.493L119.827 465.125Z" fill="#FEDAD6"/>
<path d="M86.0662 418.921L89.2578 431.29L101.123 426.022L93.2377 436.177L104.841 441.976L91.8173 442.271L94.4219 454.771L86.0662 444.983L77.7105 454.771L80.3152 442.271L67.2911 441.976L78.8948 436.177L71.0098 426.022L82.8746 431.29L86.0662 418.921Z" fill="#FEDAD6"/>
<path d="M119.827 372.717L123.019 385.086L134.884 379.818L126.999 389.973L138.602 395.772L125.578 396.067L128.183 408.567L119.827 398.779L111.471 408.567L114.076 396.067L101.052 395.772L112.656 389.973L104.771 379.818L116.635 385.086L119.827 372.717Z" fill="#FEDAD6"/>
<path d="M84.1642 335L87.3558 347.369L99.2207 342.1L91.3356 352.256L102.939 358.055L89.9153 358.35L92.5199 370.85L84.1642 361.062L75.8085 370.85L78.4131 358.35L65.3891 358.055L76.9928 352.256L69.1077 342.1L80.9726 347.369L84.1642 335Z" fill="#FEDAD6"/>
<path d="M151.924 605.15L155.076 617.519L166.794 612.251L159.007 622.406L170.467 628.205L157.604 628.5L160.176 641L151.924 631.212L143.671 641L146.244 628.5L133.38 628.205L144.841 622.406L137.053 612.251L148.771 617.519L151.924 605.15Z" fill="#FEDAD6"/>
<path d="M185.209 558.475L188.361 570.844L200.08 565.576L192.292 575.731L203.752 581.53L190.889 581.825L193.462 594.325L185.209 584.537L176.956 594.325L179.529 581.825L166.666 581.53L178.126 575.731L170.338 565.576L182.057 570.844L185.209 558.475Z" fill="#FEDAD6"/>
<path d="M146.693 511.8L149.845 524.169L161.564 518.9L153.776 529.056L165.236 534.855L152.373 535.15L154.946 547.65L146.693 537.862L138.441 547.65L141.013 535.15L128.15 534.855L139.61 529.056L131.822 518.9L143.541 524.169L146.693 511.8Z" fill="#FEDAD6"/>
<path d="M180.454 465.125L183.606 477.493L195.324 472.225L187.537 482.381L198.997 488.18L186.134 488.475L188.706 500.974L180.454 491.187L172.201 500.974L174.774 488.475L161.911 488.18L173.371 482.381L165.583 472.225L177.302 477.493L180.454 465.125Z" fill="#FEDAD6"/>
<path d="M146.693 418.921L149.845 431.29L161.564 426.022L153.776 436.177L165.236 441.976L152.373 442.271L154.946 454.771L146.693 444.983L138.441 454.771L141.013 442.271L128.15 441.976L139.61 436.177L131.822 426.022L143.541 431.29L146.693 418.921Z" fill="#FEDAD6"/>
<path d="M180.454 372.717L183.606 385.086L195.324 379.818L187.537 389.973L198.997 395.772L186.134 396.067L188.706 408.567L180.454 398.779L172.201 408.567L174.774 396.067L161.911 395.772L173.371 389.973L165.583 379.818L177.302 385.086L180.454 372.717Z" fill="#FEDAD6"/>
<path d="M144.791 335L147.943 347.369L159.662 342.1L151.874 352.256L163.334 358.055L150.471 358.35L153.044 370.85L144.791 361.062L136.538 370.85L139.111 358.35L126.248 358.055L137.708 352.256L129.92 342.1L141.639 347.369L144.791 335Z" fill="#FEDAD6"/>
<path d="M212.55 605.15L215.742 617.519L227.607 612.251L219.722 622.406L231.326 628.205L218.302 628.5L220.906 641L212.55 631.212L204.195 641L206.799 628.5L193.775 628.205L205.379 622.406L197.494 612.251L209.359 617.519L212.55 605.15Z" fill="#FEDAD6"/>
<path d="M245.836 558.475L249.027 570.844L260.892 565.576L253.007 575.731L264.611 581.53L251.587 581.825L254.192 594.325L245.836 584.537L237.48 594.325L240.085 581.825L227.061 581.53L238.664 575.731L230.779 565.576L242.644 570.844L245.836 558.475Z" fill="#FEDAD6"/>
<path d="M207.32 511.8L210.512 524.169L222.376 518.9L214.491 529.056L226.095 534.855L213.071 535.15L215.676 547.65L207.32 537.862L198.964 547.65L201.569 535.15L188.545 534.855L200.148 529.056L192.263 518.9L204.128 524.169L207.32 511.8Z" fill="#FEDAD6"/>
<path d="M241.081 465.125L244.272 477.493L256.137 472.225L248.252 482.381L259.856 488.18L246.832 488.475L249.436 500.974L241.081 491.187L232.725 500.974L235.33 488.475L222.306 488.18L233.909 482.381L226.024 472.225L237.889 477.493L241.081 465.125Z" fill="#FEDAD6"/>
<path d="M207.32 418.921L210.512 431.29L222.376 426.022L214.491 436.177L226.095 441.976L213.071 442.271L215.676 454.771L207.32 444.983L198.964 454.771L201.569 442.271L188.545 441.976L200.148 436.177L192.263 426.022L204.128 431.29L207.32 418.921Z" fill="#FEDAD6"/>
<path d="M241.081 372.717L244.272 385.086L256.137 379.818L248.252 389.973L259.856 395.772L246.832 396.067L249.436 408.567L241.081 398.779L232.725 408.567L235.33 396.067L222.306 395.772L233.909 389.973L226.024 379.818L237.889 385.086L241.081 372.717Z" fill="#FEDAD6"/>
<path d="M205.418 335L208.609 347.369L220.474 342.1L212.589 352.256L224.193 358.055L211.169 358.35L213.774 370.85L205.418 361.062L197.062 370.85L199.667 358.35L186.643 358.055L198.246 352.256L190.361 342.1L202.226 347.369L205.418 335Z" fill="#FEDAD6"/>
<path d="M272.94 605.15L276.131 617.519L287.996 612.251L280.111 622.406L291.715 628.205L278.691 628.5L281.295 641L272.94 631.212L264.584 641L267.189 628.5L254.164 628.205L265.768 622.406L257.883 612.251L269.748 617.519L272.94 605.15Z" fill="#FEDAD6"/>
<path d="M306.225 558.475L309.416 570.844L321.281 565.576L313.396 575.731L325 581.53L311.976 581.825L314.581 594.325L306.225 584.537L297.869 594.325L300.474 581.825L287.45 581.53L299.053 575.731L291.168 565.576L303.033 570.844L306.225 558.475Z" fill="#FEDAD6"/>
<path d="M267.709 511.8L270.901 524.169L282.765 518.9L274.88 529.056L286.484 534.855L273.46 535.15L276.065 547.65L267.709 537.862L259.353 547.65L261.958 535.15L248.934 534.855L260.538 529.056L252.653 518.9L264.517 524.169L267.709 511.8Z" fill="#FEDAD6"/>
<path d="M301.47 465.125L304.661 477.493L316.526 472.225L308.641 482.381L320.245 488.18L307.221 488.475L309.826 500.974L301.47 491.187L293.114 500.974L295.719 488.475L282.695 488.18L294.298 482.381L286.413 472.225L298.278 477.493L301.47 465.125Z" fill="#FEDAD6"/>
<path d="M267.709 418.921L270.901 431.29L282.765 426.022L274.88 436.177L286.484 441.976L273.46 442.271L276.065 454.771L267.709 444.983L259.353 454.771L261.958 442.271L248.934 441.976L260.538 436.177L252.653 426.022L264.517 431.29L267.709 418.921Z" fill="#FEDAD6"/>
<path d="M301.47 372.717L304.661 385.086L316.526 379.818L308.641 389.973L320.245 395.772L307.221 396.067L309.826 408.567L301.47 398.779L293.114 408.567L295.719 396.067L282.695 395.772L294.298 389.973L286.413 379.818L298.278 385.086L301.47 372.717Z" fill="#FEDAD6"/>
<path d="M265.807 335L268.999 347.369L280.863 342.1L272.978 352.256L284.582 358.055L271.558 358.35L274.163 370.85L265.807 361.062L257.451 370.85L260.056 358.35L247.032 358.055L258.636 352.256L250.751 342.1L262.615 347.369L265.807 335Z" fill="#FEDAD6"/>
<path d="M364.908 605.15L368.099 617.519L379.964 612.251L372.079 622.406L383.683 628.205L370.659 628.5L373.263 641L364.908 631.212L356.552 641L359.157 628.5L346.133 628.205L357.736 622.406L349.851 612.251L361.716 617.519L364.908 605.15Z" fill="#FEDAD6"/>
<path d="M398.193 558.475L401.385 570.844L413.249 565.576L405.364 575.731L416.968 581.53L403.944 581.825L406.549 594.325L398.193 584.537L389.837 594.325L392.442 581.825L379.418 581.53L391.022 575.731L383.137 565.576L395.001 570.844L398.193 558.475Z" fill="#FEDAD6"/>
<path d="M359.677 511.8L362.869 524.169L374.734 518.9L366.849 529.056L378.452 534.855L365.428 535.15L368.033 547.65L359.677 537.862L351.321 547.65L353.926 535.15L340.902 534.855L352.506 529.056L344.621 518.9L356.486 524.169L359.677 511.8Z" fill="#FEDAD6"/>
<path d="M393.438 465.125L396.63 477.493L408.494 472.225L400.609 482.381L412.213 488.18L399.189 488.475L401.794 500.974L393.438 491.187L385.082 500.974L387.687 488.475L374.663 488.18L386.267 482.381L378.381 472.225L390.246 477.493L393.438 465.125Z" fill="#FEDAD6"/>
<path d="M359.677 418.921L362.869 431.29L374.734 426.022L366.849 436.177L378.452 441.976L365.428 442.271L368.033 454.771L359.677 444.983L351.321 454.771L353.926 442.271L340.902 441.976L352.506 436.177L344.621 426.022L356.486 431.29L359.677 418.921Z" fill="#FEDAD6"/>
<path d="M393.438 372.717L396.63 385.086L408.494 379.818L400.609 389.973L412.213 395.772L399.189 396.067L401.794 408.567L393.438 398.779L385.082 408.567L387.687 396.067L374.663 395.772L386.267 389.973L378.381 379.818L390.246 385.086L393.438 372.717Z" fill="#FEDAD6"/>
<path d="M357.775 335L360.967 347.369L372.832 342.1L364.947 352.256L376.55 358.055L363.526 358.35L366.131 370.85L357.775 361.062L349.419 370.85L352.024 358.35L339 358.055L350.604 352.256L342.719 342.1L354.584 347.369L357.775 335Z" fill="#FEDAD6"/>
<path d="M425.297 605.15L428.488 617.519L440.353 612.251L432.468 622.406L444.072 628.205L431.048 628.5L433.652 641L425.297 631.212L416.941 641L419.546 628.5L406.522 628.205L418.125 622.406L410.24 612.251L422.105 617.519L425.297 605.15Z" fill="#FEDAD6"/>
<path d="M458.582 558.475L461.774 570.844L473.639 565.576L465.754 575.731L477.357 581.53L464.333 581.825L466.938 594.325L458.582 584.537L450.226 594.325L452.831 581.825L439.807 581.53L451.411 575.731L443.526 565.576L455.391 570.844L458.582 558.475Z" fill="#FEDAD6"/>
<path d="M420.066 511.8L423.258 524.169L435.123 518.9L427.238 529.056L438.841 534.855L425.817 535.15L428.422 547.65L420.066 537.862L411.711 547.65L414.315 535.15L401.291 534.855L412.895 529.056L405.01 518.9L416.875 524.169L420.066 511.8Z" fill="#FEDAD6"/>
<path d="M453.827 465.125L457.019 477.493L468.884 472.225L460.999 482.381L472.602 488.18L459.578 488.475L462.183 500.974L453.827 491.187L445.471 500.974L448.076 488.475L435.052 488.18L446.656 482.381L438.771 472.225L450.635 477.493L453.827 465.125Z" fill="#FEDAD6"/>
<path d="M420.066 418.921L423.258 431.29L435.123 426.022L427.238 436.177L438.841 441.976L425.817 442.271L428.422 454.771L420.066 444.983L411.711 454.771L414.315 442.271L401.291 441.976L412.895 436.177L405.01 426.022L416.875 431.29L420.066 418.921Z" fill="#FEDAD6"/>
<path d="M453.827 372.717L457.019 385.086L468.884 379.818L460.999 389.973L472.602 395.772L459.578 396.067L462.183 408.567L453.827 398.779L445.471 408.567L448.076 396.067L435.052 395.772L446.656 389.973L438.771 379.818L450.635 385.086L453.827 372.717Z" fill="#FEDAD6"/>
<path d="M418.164 335L421.356 347.369L433.221 342.1L425.336 352.256L436.939 358.055L423.915 358.35L426.52 370.85L418.164 361.062L409.808 370.85L412.413 358.35L399.389 358.055L410.993 352.256L403.108 342.1L414.973 347.369L418.164 335Z" fill="#FEDAD6"/>
<path d="M485.924 605.15L489.076 617.519L500.794 612.251L493.007 622.406L504.467 628.205L491.604 628.5L494.176 641L485.924 631.212L477.671 641L480.244 628.5L467.38 628.205L478.841 622.406L471.053 612.251L482.771 617.519L485.924 605.15Z" fill="#FEDAD6"/>
<path d="M519.209 558.475L522.361 570.844L534.08 565.576L526.292 575.731L537.752 581.53L524.889 581.825L527.462 594.325L519.209 584.537L510.956 594.325L513.529 581.825L500.666 581.53L512.126 575.731L504.338 565.576L516.057 570.844L519.209 558.475Z" fill="#FEDAD6"/>
<path d="M480.693 511.8L483.845 524.169L495.564 518.9L487.776 529.056L499.236 534.855L486.373 535.15L488.946 547.65L480.693 537.862L472.441 547.65L475.013 535.15L462.15 534.855L473.61 529.056L465.822 518.9L477.541 524.169L480.693 511.8Z" fill="#FEDAD6"/>
<path d="M514.454 465.125L517.606 477.493L529.324 472.225L521.537 482.381L532.997 488.18L520.134 488.475L522.706 500.974L514.454 491.187L506.201 500.974L508.774 488.475L495.911 488.18L507.371 482.381L499.583 472.225L511.302 477.493L514.454 465.125Z" fill="#FEDAD6"/>
<path d="M480.693 418.921L483.845 431.29L495.564 426.022L487.776 436.177L499.236 441.976L486.373 442.271L488.946 454.771L480.693 444.983L472.441 454.771L475.013 442.271L462.15 441.976L473.61 436.177L465.822 426.022L477.541 431.29L480.693 418.921Z" fill="#FEDAD6"/>
<path d="M514.454 372.717L517.606 385.086L529.324 379.818L521.537 389.973L532.997 395.772L520.134 396.067L522.706 408.567L514.454 398.779L506.201 408.567L508.774 396.067L495.911 395.772L507.371 389.973L499.583 379.818L511.302 385.086L514.454 372.717Z" fill="#FEDAD6"/>
<path d="M478.791 335L481.943 347.369L493.662 342.1L485.874 352.256L497.334 358.055L484.471 358.35L487.044 370.85L478.791 361.062L470.538 370.85L473.111 358.35L460.248 358.055L471.708 352.256L463.92 342.1L475.639 347.369L478.791 335Z" fill="#FEDAD6"/>
<path d="M546.55 605.15L549.742 617.519L561.607 612.251L553.722 622.406L565.326 628.205L552.302 628.5L554.906 641L546.55 631.212L538.195 641L540.799 628.5L527.775 628.205L539.379 622.406L531.494 612.251L543.359 617.519L546.55 605.15Z" fill="#FEDAD6"/>
<path d="M579.836 558.475L583.027 570.844L594.892 565.576L587.007 575.731L598.611 581.53L585.587 581.825L588.192 594.325L579.836 584.537L571.48 594.325L574.085 581.825L561.061 581.53L572.664 575.731L564.779 565.576L576.644 570.844L579.836 558.475Z" fill="#FEDAD6"/>
<path d="M541.32 511.8L544.512 524.169L556.376 518.9L548.491 529.056L560.095 534.855L547.071 535.15L549.676 547.65L541.32 537.862L532.964 547.65L535.569 535.15L522.545 534.855L534.148 529.056L526.263 518.9L538.128 524.169L541.32 511.8Z" fill="#FEDAD6"/>
<path d="M575.081 465.125L578.272 477.493L590.137 472.225L582.252 482.381L593.856 488.18L580.832 488.475L583.436 500.974L575.081 491.187L566.725 500.974L569.33 488.475L556.306 488.18L567.909 482.381L560.024 472.225L571.889 477.493L575.081 465.125Z" fill="#FEDAD6"/>
<path d="M541.32 418.921L544.512 431.29L556.376 426.022L548.491 436.177L560.095 441.976L547.071 442.271L549.676 454.771L541.32 444.983L532.964 454.771L535.569 442.271L522.545 441.976L534.148 436.177L526.263 426.022L538.128 431.29L541.32 418.921Z" fill="#FEDAD6"/>
<path d="M575.081 372.717L578.272 385.086L590.137 379.818L582.252 389.973L593.856 395.772L580.832 396.067L583.436 408.567L575.081 398.779L566.725 408.567L569.33 396.067L556.306 395.772L567.909 389.973L560.024 379.818L571.889 385.086L575.081 372.717Z" fill="#FEDAD6"/>
<path d="M539.418 335L542.609 347.369L554.474 342.1L546.589 352.256L558.193 358.055L545.169 358.35L547.774 370.85L539.418 361.062L531.062 370.85L533.667 358.35L520.643 358.055L532.246 352.256L524.361 342.1L536.226 347.369L539.418 335Z" fill="#FEDAD6"/>
<path d="M606.94 605.15L610.131 617.519L621.996 612.251L614.111 622.406L625.715 628.205L612.691 628.5L615.295 641L606.94 631.212L598.584 641L601.189 628.5L588.164 628.205L599.768 622.406L591.883 612.251L603.748 617.519L606.94 605.15Z" fill="#FEDAD6"/>
<path d="M640.225 558.475L643.416 570.844L655.281 565.576L647.396 575.731L659 581.53L645.976 581.825L648.581 594.325L640.225 584.537L631.869 594.325L634.474 581.825L621.45 581.53L633.053 575.731L625.168 565.576L637.033 570.844L640.225 558.475Z" fill="#FEDAD6"/>
<path d="M601.709 511.8L604.901 524.169L616.765 518.9L608.88 529.056L620.484 534.855L607.46 535.15L610.065 547.65L601.709 537.862L593.353 547.65L595.958 535.15L582.934 534.855L594.538 529.056L586.653 518.9L598.517 524.169L601.709 511.8Z" fill="#FEDAD6"/>
<path d="M635.47 465.125L638.661 477.493L650.526 472.225L642.641 482.381L654.245 488.18L641.221 488.475L643.826 500.974L635.47 491.187L627.114 500.974L629.719 488.475L616.695 488.18L628.298 482.381L620.413 472.225L632.278 477.493L635.47 465.125Z" fill="#FEDAD6"/>
<path d="M601.709 418.921L604.901 431.29L616.765 426.022L608.88 436.177L620.484 441.976L607.46 442.271L610.065 454.771L601.709 444.983L593.353 454.771L595.958 442.271L582.934 441.976L594.538 436.177L586.653 426.022L598.517 431.29L601.709 418.921Z" fill="#FEDAD6"/>
<path d="M635.47 372.717L638.661 385.086L650.526 379.818L642.641 389.973L654.245 395.772L641.221 396.067L643.826 408.567L635.47 398.779L627.114 408.567L629.719 396.067L616.695 395.772L628.298 389.973L620.413 379.818L632.278 385.086L635.47 372.717Z" fill="#FEDAD6"/>
<path d="M599.807 335L602.999 347.369L614.863 342.1L606.978 352.256L618.582 358.055L605.558 358.35L608.163 370.85L599.807 361.062L591.451 370.85L594.056 358.35L581.032 358.055L592.636 352.256L584.751 342.1L596.615 347.369L599.807 335Z" fill="#FEDAD6"/>
<path d="M364.908 280.15L368.099 292.519L379.964 287.251L372.079 297.406L383.683 303.205L370.659 303.5L373.263 316L364.908 306.212L356.552 316L359.157 303.5L346.133 303.205L357.736 297.406L349.851 287.251L361.716 292.519L364.908 280.15Z" fill="#FEDAD6"/>
<path d="M398.193 233.475L401.385 245.844L413.249 240.576L405.364 250.731L416.968 256.53L403.944 256.825L406.549 269.325L398.193 259.537L389.837 269.325L392.442 256.825L379.418 256.53L391.022 250.731L383.137 240.576L395.001 245.844L398.193 233.475Z" fill="#FEDAD6"/>
<path d="M359.677 186.8L362.869 199.169L374.734 193.9L366.849 204.056L378.452 209.855L365.428 210.15L368.033 222.65L359.677 212.862L351.321 222.65L353.926 210.15L340.902 209.855L352.506 204.056L344.621 193.9L356.486 199.169L359.677 186.8Z" fill="#FEDAD6"/>
<path d="M393.438 140.125L396.63 152.493L408.494 147.225L400.609 157.381L412.213 163.18L399.189 163.475L401.794 175.974L393.438 166.187L385.082 175.974L387.687 163.475L374.663 163.18L386.267 157.381L378.381 147.225L390.246 152.493L393.438 140.125Z" fill="#FEDAD6"/>
<path d="M359.677 93.921L362.869 106.29L374.734 101.022L366.849 111.177L378.452 116.976L365.428 117.271L368.033 129.771L359.677 119.983L351.321 129.771L353.926 117.271L340.902 116.976L352.506 111.177L344.621 101.022L356.486 106.29L359.677 93.921Z" fill="#FEDAD6"/>
<path d="M393.438 47.7173L396.63 60.086L408.494 54.8178L400.609 64.9731L412.213 70.7724L399.189 71.0672L401.794 83.567L393.438 73.7793L385.082 83.567L387.687 71.0672L374.663 70.7724L386.267 64.9731L378.381 54.8178L390.246 60.086L393.438 47.7173Z" fill="#FEDAD6"/>
<path d="M357.775 10L360.967 22.3686L372.832 17.1005L364.947 27.2558L376.55 33.0551L363.526 33.3499L366.131 45.8497L357.775 36.062L349.419 45.8497L352.024 33.3499L339 33.0551L350.604 27.2558L342.719 17.1005L354.584 22.3686L357.775 10Z" fill="#FEDAD6"/>
<path d="M425.297 280.15L428.488 292.519L440.353 287.251L432.468 297.406L444.072 303.205L431.048 303.5L433.652 316L425.297 306.212L416.941 316L419.546 303.5L406.522 303.205L418.125 297.406L410.24 287.251L422.105 292.519L425.297 280.15Z" fill="#FEDAD6"/>
<path d="M458.582 233.475L461.774 245.844L473.639 240.576L465.754 250.731L477.357 256.53L464.333 256.825L466.938 269.325L458.582 259.537L450.226 269.325L452.831 256.825L439.807 256.53L451.411 250.731L443.526 240.576L455.391 245.844L458.582 233.475Z" fill="#FEDAD6"/>
<path d="M420.066 186.8L423.258 199.169L435.123 193.9L427.238 204.056L438.841 209.855L425.817 210.15L428.422 222.65L420.066 212.862L411.711 222.65L414.315 210.15L401.291 209.855L412.895 204.056L405.01 193.9L416.875 199.169L420.066 186.8Z" fill="#FEDAD6"/>
<path d="M453.827 140.125L457.019 152.493L468.884 147.225L460.999 157.381L472.602 163.18L459.578 163.475L462.183 175.974L453.827 166.187L445.471 175.974L448.076 163.475L435.052 163.18L446.656 157.381L438.771 147.225L450.635 152.493L453.827 140.125Z" fill="#FEDAD6"/>
<path d="M420.066 93.921L423.258 106.29L435.123 101.022L427.238 111.177L438.841 116.976L425.817 117.271L428.422 129.771L420.066 119.983L411.711 129.771L414.315 117.271L401.291 116.976L412.895 111.177L405.01 101.022L416.875 106.29L420.066 93.921Z" fill="#FEDAD6"/>
<path d="M453.827 47.7173L457.019 60.086L468.884 54.8178L460.999 64.9731L472.602 70.7724L459.578 71.0672L462.183 83.567L453.827 73.7793L445.471 83.567L448.076 71.0672L435.052 70.7724L446.656 64.9731L438.771 54.8178L450.635 60.086L453.827 47.7173Z" fill="#FEDAD6"/>
<path d="M418.164 10L421.356 22.3686L433.221 17.1005L425.336 27.2558L436.939 33.0551L423.915 33.3499L426.52 45.8497L418.164 36.062L409.808 45.8497L412.413 33.3499L399.389 33.0551L410.993 27.2558L403.108 17.1005L414.973 22.3686L418.164 10Z" fill="#FEDAD6"/>
<path d="M485.924 280.15L489.076 292.519L500.794 287.251L493.007 297.406L504.467 303.205L491.604 303.5L494.176 316L485.924 306.212L477.671 316L480.244 303.5L467.38 303.205L478.841 297.406L471.053 287.251L482.771 292.519L485.924 280.15Z" fill="#FEDAD6"/>
<path d="M519.209 233.475L522.361 245.844L534.08 240.576L526.292 250.731L537.752 256.53L524.889 256.825L527.462 269.325L519.209 259.537L510.956 269.325L513.529 256.825L500.666 256.53L512.126 250.731L504.338 240.576L516.057 245.844L519.209 233.475Z" fill="#FEDAD6"/>
<path d="M480.693 186.8L483.845 199.169L495.564 193.9L487.776 204.056L499.236 209.855L486.373 210.15L488.946 222.65L480.693 212.862L472.441 222.65L475.013 210.15L462.15 209.855L473.61 204.056L465.822 193.9L477.541 199.169L480.693 186.8Z" fill="#FEDAD6"/>
<path d="M514.454 140.125L517.606 152.493L529.324 147.225L521.537 157.381L532.997 163.18L520.134 163.475L522.706 175.974L514.454 166.187L506.201 175.974L508.774 163.475L495.911 163.18L507.371 157.381L499.583 147.225L511.302 152.493L514.454 140.125Z" fill="#FEDAD6"/>
<path d="M480.693 93.921L483.845 106.29L495.564 101.022L487.776 111.177L499.236 116.976L486.373 117.271L488.946 129.771L480.693 119.983L472.441 129.771L475.013 117.271L462.15 116.976L473.61 111.177L465.822 101.022L477.541 106.29L480.693 93.921Z" fill="#FEDAD6"/>
<path d="M514.454 47.7173L517.606 60.086L529.324 54.8178L521.537 64.9731L532.997 70.7724L520.134 71.0672L522.706 83.567L514.454 73.7793L506.201 83.567L508.774 71.0672L495.911 70.7724L507.371 64.9731L499.583 54.8178L511.302 60.086L514.454 47.7173Z" fill="#FEDAD6"/>
<path d="M478.791 10L481.943 22.3686L493.662 17.1005L485.874 27.2558L497.334 33.0551L484.471 33.3499L487.044 45.8497L478.791 36.062L470.538 45.8497L473.111 33.3499L460.248 33.0551L471.708 27.2558L463.92 17.1005L475.639 22.3686L478.791 10Z" fill="#FEDAD6"/>
<path d="M546.55 280.15L549.742 292.519L561.607 287.251L553.722 297.406L565.326 303.205L552.302 303.5L554.906 316L546.55 306.212L538.195 316L540.799 303.5L527.775 303.205L539.379 297.406L531.494 287.251L543.359 292.519L546.55 280.15Z" fill="#FEDAD6"/>
<path d="M579.836 233.475L583.027 245.844L594.892 240.576L587.007 250.731L598.611 256.53L585.587 256.825L588.192 269.325L579.836 259.537L571.48 269.325L574.085 256.825L561.061 256.53L572.664 250.731L564.779 240.576L576.644 245.844L579.836 233.475Z" fill="#FEDAD6"/>
<path d="M541.32 186.8L544.512 199.169L556.376 193.9L548.491 204.056L560.095 209.855L547.071 210.15L549.676 222.65L541.32 212.862L532.964 222.65L535.569 210.15L522.545 209.855L534.148 204.056L526.263 193.9L538.128 199.169L541.32 186.8Z" fill="#FEDAD6"/>
<path d="M575.081 140.125L578.272 152.493L590.137 147.225L582.252 157.381L593.856 163.18L580.832 163.475L583.436 175.974L575.081 166.187L566.725 175.974L569.33 163.475L556.306 163.18L567.909 157.381L560.024 147.225L571.889 152.493L575.081 140.125Z" fill="#FEDAD6"/>
<path d="M541.32 93.921L544.512 106.29L556.376 101.022L548.491 111.177L560.095 116.976L547.071 117.271L549.676 129.771L541.32 119.983L532.964 129.771L535.569 117.271L522.545 116.976L534.148 111.177L526.263 101.022L538.128 106.29L541.32 93.921Z" fill="#FEDAD6"/>
<path d="M575.081 47.7173L578.272 60.086L590.137 54.8178L582.252 64.9731L593.856 70.7724L580.832 71.0672L583.436 83.567L575.081 73.7793L566.725 83.567L569.33 71.0672L556.306 70.7724L567.909 64.9731L560.024 54.8178L571.889 60.086L575.081 47.7173Z" fill="#FEDAD6"/>
<path d="M539.418 10L542.609 22.3686L554.474 17.1005L546.589 27.2558L558.193 33.0551L545.169 33.3499L547.774 45.8497L539.418 36.062L531.062 45.8497L533.667 33.3499L520.643 33.0551L532.246 27.2558L524.361 17.1005L536.226 22.3686L539.418 10Z" fill="#FEDAD6"/>
<path d="M606.94 280.15L610.131 292.519L621.996 287.251L614.111 297.406L625.715 303.205L612.691 303.5L615.295 316L606.94 306.212L598.584 316L601.189 303.5L588.164 303.205L599.768 297.406L591.883 287.251L603.748 292.519L606.94 280.15Z" fill="#FEDAD6"/>
<path d="M640.225 233.475L643.416 245.844L655.281 240.576L647.396 250.731L659 256.53L645.976 256.825L648.581 269.325L640.225 259.537L631.869 269.325L634.474 256.825L621.45 256.53L633.053 250.731L625.168 240.576L637.033 245.844L640.225 233.475Z" fill="#FEDAD6"/>
<path d="M601.709 186.8L604.901 199.169L616.765 193.9L608.88 204.056L620.484 209.855L607.46 210.15L610.065 222.65L601.709 212.862L593.353 222.65L595.958 210.15L582.934 209.855L594.538 204.056L586.653 193.9L598.517 199.169L601.709 186.8Z" fill="#FEDAD6"/>
<path d="M635.47 140.125L638.661 152.493L650.526 147.225L642.641 157.381L654.245 163.18L641.221 163.475L643.826 175.974L635.47 166.187L627.114 175.974L629.719 163.475L616.695 163.18L628.298 157.381L620.413 147.225L632.278 152.493L635.47 140.125Z" fill="#FEDAD6"/>
<path d="M601.709 93.921L604.901 106.29L616.765 101.022L608.88 111.177L620.484 116.976L607.46 117.271L610.065 129.771L601.709 119.983L593.353 129.771L595.958 117.271L582.934 116.976L594.538 111.177L586.653 101.022L598.517 106.29L601.709 93.921Z" fill="#FEDAD6"/>
<path d="M635.47 47.7173L638.661 60.086L650.526 54.8178L642.641 64.9731L654.245 70.7724L641.221 71.0672L643.826 83.567L635.47 73.7793L627.114 83.567L629.719 71.0672L616.695 70.7724L628.298 64.9731L620.413 54.8178L632.278 60.086L635.47 47.7173Z" fill="#FEDAD6"/>
<path d="M599.807 10L602.999 22.3686L614.863 17.1005L606.978 27.2558L618.582 33.0551L605.558 33.3499L608.163 45.8497L599.807 36.062L591.451 45.8497L594.056 33.3499L581.032 33.0551L592.636 27.2558L584.751 17.1005L596.615 22.3686L599.807 10Z" fill="#FEDAD6"/>
</g>
</svg>
