<svg width="116" height="116" viewBox="0 0 116 116" fill="none" xmlns="http://www.w3.org/2000/svg">
<path d="M58 33.8029V82.1971" stroke="black" stroke-width="4" stroke-linecap="round" stroke-linejoin="round"/>
<path d="M82.197 58H33.8027" stroke="black" stroke-width="4" stroke-linecap="round" stroke-linejoin="round"/>
<path d="M75.1096 40.89L40.8896 75.11" stroke="black" stroke-width="4" stroke-linecap="round" stroke-linejoin="round"/>
<path d="M75.1096 75.11L40.8896 40.89" stroke="black" stroke-width="4" stroke-linecap="round" stroke-linejoin="round"/>
<path d="M106.667 108.211H29.3336C29.1186 108.224 28.9034 108.191 28.702 108.114C28.5007 108.038 28.3178 107.92 28.1656 107.768C28.0133 107.615 27.8951 107.432 27.8187 107.231C27.7423 107.03 27.7095 106.814 27.7225 106.6V29.2662C27.7095 29.0512 27.7423 28.8359 27.8187 28.6346C27.8951 28.4332 28.0133 28.2504 28.1656 28.0981C28.3178 27.9458 28.5007 27.8276 28.702 27.7512C28.9034 27.6749 29.1186 27.6421 29.3336 27.655H106.667C106.882 27.6421 107.097 27.6749 107.298 27.7512C107.5 27.8276 107.683 27.9458 107.835 28.0981C107.987 28.2504 108.105 28.4332 108.182 28.6346C108.258 28.8359 108.291 29.0512 108.278 29.2662V106.6C108.291 106.814 108.258 107.03 108.182 107.231C108.105 107.432 107.987 107.615 107.835 107.768C107.683 107.92 107.5 108.038 107.298 108.114C107.097 108.191 106.882 108.224 106.667 108.211Z" fill="#2E2E2E"/>
<path d="M96.6669 98.2106H19.3336C19.1186 98.2236 18.9034 98.1908 18.702 98.1144C18.5007 98.038 18.3178 97.9198 18.1656 97.7675C18.0133 97.6153 17.8951 97.4324 17.8187 97.2311C17.7423 97.0297 17.7095 96.8145 17.7225 96.5995V19.2662C17.7095 19.0512 17.7423 18.8359 17.8187 18.6346C17.8951 18.4332 18.0133 18.2504 18.1656 18.0981C18.3178 17.9458 18.5007 17.8276 18.702 17.7512C18.9034 17.6749 19.1186 17.6421 19.3336 17.655H96.6669C96.8819 17.6421 97.0971 17.6749 97.2985 17.7512C97.4998 17.8276 97.6827 17.9458 97.835 18.0981C97.9872 18.2504 98.1055 18.4332 98.1818 18.6346C98.2582 18.8359 98.291 19.0512 98.278 19.2662V96.5995C98.291 96.8145 98.2582 97.0297 98.1818 97.2311C98.1055 97.4324 97.9872 97.6153 97.835 97.7675C97.6827 97.9198 97.4998 98.038 97.2985 98.1144C97.0971 98.1908 96.8819 98.2236 96.6669 98.2106Z" fill="#5C9E31"/>
<path d="M58 33.7357V82.13" stroke="white" stroke-width="4" stroke-linecap="round" stroke-linejoin="round"/>
<path d="M82.197 57.9328H33.8027" stroke="white" stroke-width="4" stroke-linecap="round" stroke-linejoin="round"/>
<path d="M75.1106 40.8228L40.8906 75.0428" stroke="white" stroke-width="4" stroke-linecap="round" stroke-linejoin="round"/>
<path d="M75.1106 75.0428L40.8906 40.8228" stroke="white" stroke-width="4" stroke-linecap="round" stroke-linejoin="round"/>
<path d="M96.6669 98.2778H19.3336C19.1186 98.2908 18.9034 98.258 18.702 98.1816C18.5007 98.1052 18.3178 97.987 18.1656 97.8347C18.0133 97.6824 17.8951 97.4996 17.8187 97.2982C17.7423 97.0969 17.7095 96.8816 17.7225 96.6667V19.3334C17.7095 19.1184 17.7423 18.9031 17.8187 18.7018C17.8951 18.5004 18.0133 18.3176 18.1656 18.1653C18.3178 18.013 18.5007 17.8948 18.702 17.8184C18.9034 17.7421 19.1186 17.7093 19.3336 17.7222H96.6669C96.8819 17.7093 97.0971 17.7421 97.2985 17.8184C97.4998 17.8948 97.6827 18.013 97.835 18.1653C97.9872 18.3176 98.1055 18.5004 98.1818 18.7018C98.2582 18.9031 98.291 19.1184 98.278 19.3334V96.6667C98.291 96.8816 98.2582 97.0969 98.1818 97.2982C98.1055 97.4996 97.9872 97.6824 97.835 97.8347C97.6827 97.987 97.4998 98.1052 97.2985 98.1816C97.0971 98.258 96.8819 98.2908 96.6669 98.2778V98.2778Z" stroke="black" stroke-width="2" stroke-linecap="round" stroke-linejoin="round"/>
</svg>
