<svg width="200" height="104" viewBox="0 0 200 104" fill="none" xmlns="http://www.w3.org/2000/svg">
<path d="M189.364 41.9418C190.004 45.4695 188.535 49.4546 184.692 53.7497C180.864 58.0274 174.879 62.3754 167.095 66.5121C151.546 74.7765 129.188 82.0052 103.715 86.1744C78.2424 90.3436 54.6267 90.6397 37.0622 87.7952C28.2703 86.3714 21.0981 84.177 15.9841 81.3627C10.8493 78.5371 8.06069 75.2489 7.42081 71.7212C6.78094 68.1936 8.25024 64.2085 12.0934 59.9134C15.921 55.6356 21.9065 51.2876 29.6898 47.1509C45.2393 38.8865 67.5975 31.6578 93.0701 27.4886C118.543 23.3194 142.158 23.0234 159.723 25.8679C168.515 27.2917 175.687 29.4861 180.801 32.3003C185.936 35.126 188.724 38.4142 189.364 41.9418Z" fill="#FF8DC4" stroke="#2E2E2E" stroke-width="3.60126"/>
<path d="M192.242 31.4057C192.882 34.9334 191.413 38.9184 187.57 43.2136C183.742 47.4913 177.757 51.8393 169.973 55.976C154.424 64.2404 132.066 71.4691 106.593 75.6383C81.1203 79.8075 57.5047 80.1035 39.9401 77.259C31.1482 75.8353 23.976 73.6408 18.862 70.8266C13.7272 68.0009 10.9386 64.7128 10.2987 61.1851C9.65887 57.6574 11.1282 53.6724 14.9713 49.3772C18.7989 45.0995 24.7844 40.7515 32.5677 36.6148C48.1173 28.3504 70.4754 21.1217 95.948 16.9525C121.421 12.7833 145.036 12.4873 162.601 15.3317C171.393 16.7555 178.565 18.9499 183.679 21.7642C188.814 24.5899 191.602 27.878 192.242 31.4057Z" fill="#A2ABFF" stroke="#2E2E2E" stroke-width="3.60126"/>
<path d="M65.797 50.2515C65.4406 50.1523 64.976 50.0512 64.4031 49.9481C63.8303 49.845 63.1891 49.7672 62.4796 49.7145C61.7684 49.6536 61.0056 49.6363 60.1911 49.6628C59.375 49.6809 58.5504 49.7651 57.7175 49.9153C57.0512 50.0354 56.4847 50.159 56.0183 50.2861C55.5601 50.4117 55.1753 50.5369 54.8637 50.6619C54.5604 50.7854 54.3221 50.91 54.1488 51.0358C53.9821 51.1519 53.858 51.2645 53.7763 51.3739C53.6945 51.4832 53.6461 51.5865 53.6311 51.6838C53.6243 51.7796 53.6284 51.8648 53.6433 51.9395C53.6931 52.1885 53.862 52.3859 54.15 52.5318C54.4363 52.6693 54.811 52.7737 55.274 52.845C55.7353 52.908 56.2666 52.9541 56.8678 52.9833C57.4674 53.0042 58.102 53.0274 58.7715 53.0528C59.4477 53.0685 60.1439 53.0978 60.8601 53.1406C61.5829 53.1737 62.2866 53.2403 62.971 53.3405C63.6638 53.4391 64.3266 53.5819 64.9594 53.7688C65.5905 53.9473 66.1607 54.1885 66.6701 54.4921C67.1795 54.7958 67.6089 55.1742 67.9583 55.6271C68.3076 56.08 68.5461 56.626 68.6738 57.2651C68.838 58.0867 68.8332 58.8184 68.6594 59.4603C68.4856 60.1021 68.1936 60.6706 67.7834 61.1659C67.3816 61.6597 66.8849 62.0889 66.2932 62.4535C65.7 62.8098 65.0626 63.1182 64.3812 63.3786C63.708 63.6375 63.0133 63.853 62.2969 64.0252C61.5889 64.1958 60.9101 64.3397 60.2604 64.4568C58.5612 64.7632 56.9588 64.9059 55.4531 64.885C53.9574 64.8709 52.6142 64.7562 51.4235 64.5409L50.6077 60.4576C51.8748 60.8826 53.2729 61.1422 54.8018 61.2363C56.339 61.3289 57.9406 61.225 59.6065 60.9247C60.5893 60.7475 61.379 60.5535 61.9754 60.3428C62.5786 60.1223 63.0393 59.9017 63.3576 59.6809C63.6743 59.4518 63.876 59.2306 63.9628 59.0172C64.0496 58.8038 64.0756 58.6099 64.0408 58.4356C63.9861 58.1618 63.8139 57.9477 63.5242 57.7936C63.2329 57.6312 62.8557 57.5143 62.3927 57.443C61.9281 57.3634 61.396 57.3131 60.7964 57.2923C60.1952 57.2631 59.5573 57.2448 58.8827 57.2374C58.2148 57.2203 57.5245 57.1986 56.8116 57.1723C56.0988 57.146 55.3976 57.0919 54.7081 57.0098C54.0253 56.9179 53.37 56.791 52.7422 56.6291C52.1128 56.4588 51.545 56.2301 51.039 55.943C50.5312 55.6476 50.1043 55.2818 49.7583 54.8454C49.4106 54.4008 49.1729 53.859 49.0452 53.2199C48.8943 52.4646 48.8974 51.7891 49.0545 51.1933C49.2116 50.5975 49.4769 50.0681 49.8504 49.6053C50.2306 49.1326 50.6923 48.7226 51.2356 48.3753C51.7872 48.0265 52.3787 47.7264 53.0102 47.475C53.6417 47.2236 54.2898 47.0121 54.9545 46.8407C55.6193 46.6693 56.2556 46.5288 56.8637 46.4191C57.53 46.299 58.2196 46.2091 58.9326 46.1493C59.6538 46.0881 60.3684 46.0582 61.0763 46.0595C61.7825 46.0526 62.4678 46.0709 63.1324 46.1145C63.8052 46.1565 64.4298 46.2159 65.006 46.2926L65.797 50.2515ZM81.0205 46.3719L83.6944 59.7549L79.0591 60.5905L76.3853 47.2076L69.1014 48.5207L68.3577 44.7984L87.5733 41.3342L88.317 45.0565L81.0205 46.3719ZM106.211 52.3421L96.641 54.0674L95.676 57.5948L90.5035 58.5273L96.0691 39.8025L101.242 38.87L113.642 54.3558L108.47 55.2883L106.211 52.3421ZM97.6361 50.4315L103.908 49.3008L99.526 43.5645L97.6361 50.4315ZM121.089 53.0134L116.453 53.849L113.036 36.7437L124.655 34.649C125.905 34.4238 126.988 34.3617 127.906 34.4628C128.832 34.5624 129.613 34.8 130.249 35.1754C130.893 35.5494 131.403 36.0507 131.779 36.6795C132.161 37.2984 132.435 38.0186 132.599 38.8403C132.743 39.5624 132.765 40.2119 132.664 40.7889C132.572 41.3644 132.39 41.8787 132.118 42.3319C131.853 42.7752 131.518 43.171 131.113 43.5192C130.708 43.8673 130.269 44.1744 129.796 44.4402L136.768 50.1866L131.346 51.1642L124.89 45.8018L119.83 46.7141L121.089 53.0134ZM127.909 39.6601C127.842 39.3281 127.74 39.0542 127.602 38.8383C127.472 38.6209 127.285 38.4612 127.04 38.3592C126.794 38.2488 126.481 38.1935 126.101 38.1931C125.73 38.1913 125.273 38.2392 124.732 38.3368L118.385 39.481L119.116 43.1411L125.463 41.9969C126.004 41.8993 126.448 41.785 126.793 41.654C127.146 41.5216 127.417 41.3653 127.605 41.1851C127.792 40.9967 127.903 40.7788 127.94 40.5314C127.985 40.2825 127.975 39.992 127.909 39.6601ZM147.038 34.4701L149.712 47.8531L145.077 48.6888L142.403 35.3058L135.119 36.6189L134.375 32.8966L153.591 29.4324L154.335 33.1547L147.038 34.4701Z" fill="#2E2E2E"/>
</svg>
